<mxfile host="app.diagrams.net" agent="Mozilla/5.0 (Windows NT 10.0; Win64; x64) AppleWebKit/537.36 (KHTML, like Gecko) Chrome/127.0.0.0 Safari/537.36" version="24.7.7">
  <diagram name="Page-1" id="87L7ni9AQYCWvI0muWqD">
    <mxGraphModel dx="1640" dy="1076" grid="0" gridSize="10" guides="1" tooltips="1" connect="1" arrows="1" fold="1" page="0" pageScale="1" pageWidth="850" pageHeight="1100" math="0" shadow="0">
      <root>
        <mxCell id="0" />
        <mxCell id="1" parent="0" />
        <mxCell id="maC-NbdhFX693N1AFnbe-45" value="" style="rounded=0;whiteSpace=wrap;html=1;dashed=1;strokeColor=#B5739D;strokeWidth=2;" vertex="1" parent="1">
          <mxGeometry x="-148" y="-1" width="548" height="573" as="geometry" />
        </mxCell>
        <mxCell id="maC-NbdhFX693N1AFnbe-34" value="" style="rounded=0;whiteSpace=wrap;html=1;fillColor=#ffe6cc;strokeColor=#d79b00;" vertex="1" parent="1">
          <mxGeometry x="411" y="467" width="123.04" height="48.25" as="geometry" />
        </mxCell>
        <mxCell id="maC-NbdhFX693N1AFnbe-35" value="linker" style="text;html=1;align=center;verticalAlign=middle;whiteSpace=wrap;rounded=0;fontSize=16;" vertex="1" parent="1">
          <mxGeometry x="438.27" y="474" width="68.5" height="34.25" as="geometry" />
        </mxCell>
        <mxCell id="maC-NbdhFX693N1AFnbe-36" value="" style="endArrow=none;html=1;rounded=0;fontSize=12;startSize=8;endSize=8;edgeStyle=elbowEdgeStyle;entryX=0.5;entryY=0;entryDx=0;entryDy=0;" edge="1" parent="1">
          <mxGeometry width="50" height="50" relative="1" as="geometry">
            <mxPoint x="410" y="492" as="sourcePoint" />
            <mxPoint x="365" y="492" as="targetPoint" />
          </mxGeometry>
        </mxCell>
        <mxCell id="maC-NbdhFX693N1AFnbe-37" value="" style="endArrow=classic;html=1;rounded=0;fontSize=12;startSize=8;endSize=8;curved=1;" edge="1" parent="1">
          <mxGeometry width="50" height="50" relative="1" as="geometry">
            <mxPoint x="534.04" y="494" as="sourcePoint" />
            <mxPoint x="599" y="494" as="targetPoint" />
          </mxGeometry>
        </mxCell>
        <mxCell id="maC-NbdhFX693N1AFnbe-42" value="" style="rounded=0;whiteSpace=wrap;html=1;" vertex="1" parent="1">
          <mxGeometry x="599" y="474" width="158" height="39" as="geometry" />
        </mxCell>
        <mxCell id="maC-NbdhFX693N1AFnbe-43" value="&lt;font style=&quot;font-size: 12px;&quot;&gt;machine code execute file&lt;/font&gt;" style="text;html=1;align=center;verticalAlign=middle;whiteSpace=wrap;rounded=0;fontSize=16;" vertex="1" parent="1">
          <mxGeometry x="601.75" y="470" width="152.5" height="32" as="geometry" />
        </mxCell>
        <mxCell id="maC-NbdhFX693N1AFnbe-44" value="&lt;span style=&quot;font-size: 12px;&quot;&gt;(.exe, .out)&lt;/span&gt;" style="text;html=1;align=center;verticalAlign=middle;whiteSpace=wrap;rounded=0;fontSize=16;" vertex="1" parent="1">
          <mxGeometry x="601.75" y="483.25" width="152.5" height="32" as="geometry" />
        </mxCell>
        <mxCell id="maC-NbdhFX693N1AFnbe-47" value="" style="rounded=0;whiteSpace=wrap;html=1;dashed=1;strokeColor=#7EA6E0;strokeWidth=2;" vertex="1" parent="1">
          <mxGeometry x="178" y="12" width="208" height="522.25" as="geometry" />
        </mxCell>
        <mxCell id="maC-NbdhFX693N1AFnbe-26" value="" style="endArrow=none;html=1;rounded=0;fontSize=12;startSize=8;endSize=8;edgeStyle=elbowEdgeStyle;entryX=0.5;entryY=0;entryDx=0;entryDy=0;exitX=0.5;exitY=1;exitDx=0;exitDy=0;" edge="1" parent="1" source="maC-NbdhFX693N1AFnbe-12" target="maC-NbdhFX693N1AFnbe-13">
          <mxGeometry width="50" height="50" relative="1" as="geometry">
            <mxPoint x="288.5" y="89" as="sourcePoint" />
            <mxPoint x="288.5" y="189" as="targetPoint" />
          </mxGeometry>
        </mxCell>
        <mxCell id="maC-NbdhFX693N1AFnbe-1" value="" style="rounded=0;whiteSpace=wrap;html=1;" vertex="1" parent="1">
          <mxGeometry x="-130" y="30" width="102" height="50" as="geometry" />
        </mxCell>
        <mxCell id="maC-NbdhFX693N1AFnbe-2" value="" style="rounded=0;whiteSpace=wrap;html=1;fillColor=#ffe6cc;strokeColor=#d79b00;" vertex="1" parent="1">
          <mxGeometry x="30" y="35" width="102" height="40" as="geometry" />
        </mxCell>
        <mxCell id="maC-NbdhFX693N1AFnbe-3" value="source code" style="text;html=1;align=center;verticalAlign=middle;whiteSpace=wrap;rounded=0;fontSize=16;" vertex="1" parent="1">
          <mxGeometry x="-127.5" y="33" width="97" height="30" as="geometry" />
        </mxCell>
        <mxCell id="maC-NbdhFX693N1AFnbe-5" value="&lt;font style=&quot;font-size: 14px;&quot;&gt;(.h, .c)&lt;/font&gt;" style="text;html=1;align=center;verticalAlign=middle;whiteSpace=wrap;rounded=0;fontSize=16;" vertex="1" parent="1">
          <mxGeometry x="-128.5" y="49" width="97" height="30" as="geometry" />
        </mxCell>
        <mxCell id="maC-NbdhFX693N1AFnbe-6" value="" style="endArrow=none;html=1;rounded=0;fontSize=12;startSize=8;endSize=8;curved=1;" edge="1" parent="1">
          <mxGeometry width="50" height="50" relative="1" as="geometry">
            <mxPoint x="-28" y="54.5" as="sourcePoint" />
            <mxPoint x="29" y="54.5" as="targetPoint" />
          </mxGeometry>
        </mxCell>
        <mxCell id="maC-NbdhFX693N1AFnbe-7" value="preprocessor" style="text;html=1;align=center;verticalAlign=middle;whiteSpace=wrap;rounded=0;fontSize=16;" vertex="1" parent="1">
          <mxGeometry x="51" y="40" width="60" height="30" as="geometry" />
        </mxCell>
        <mxCell id="maC-NbdhFX693N1AFnbe-8" value="" style="endArrow=classic;html=1;rounded=0;fontSize=12;startSize=8;endSize=8;curved=1;" edge="1" parent="1">
          <mxGeometry width="50" height="50" relative="1" as="geometry">
            <mxPoint x="133" y="54.5" as="sourcePoint" />
            <mxPoint x="206" y="55" as="targetPoint" />
          </mxGeometry>
        </mxCell>
        <mxCell id="maC-NbdhFX693N1AFnbe-9" value="" style="rounded=0;whiteSpace=wrap;html=1;" vertex="1" parent="1">
          <mxGeometry x="207" y="27" width="158" height="62" as="geometry" />
        </mxCell>
        <mxCell id="maC-NbdhFX693N1AFnbe-10" value="Expanded Source Code" style="text;html=1;align=center;verticalAlign=middle;whiteSpace=wrap;rounded=0;fontSize=16;" vertex="1" parent="1">
          <mxGeometry x="218" y="35" width="142" height="30" as="geometry" />
        </mxCell>
        <mxCell id="maC-NbdhFX693N1AFnbe-12" value="&lt;font style=&quot;font-size: 14px;&quot;&gt;(Translation Unit)&lt;/font&gt;" style="text;html=1;align=center;verticalAlign=middle;whiteSpace=wrap;rounded=0;fontSize=16;" vertex="1" parent="1">
          <mxGeometry x="224.75" y="59" width="128.5" height="30" as="geometry" />
        </mxCell>
        <mxCell id="maC-NbdhFX693N1AFnbe-13" value="" style="rounded=0;whiteSpace=wrap;html=1;fillColor=#dae8fc;strokeColor=#6c8ebf;" vertex="1" parent="1">
          <mxGeometry x="220.25" y="117" width="133" height="97" as="geometry" />
        </mxCell>
        <mxCell id="maC-NbdhFX693N1AFnbe-14" value="compiler" style="text;html=1;align=center;verticalAlign=middle;whiteSpace=wrap;rounded=0;fontSize=16;" vertex="1" parent="1">
          <mxGeometry x="256" y="150.5" width="60" height="30" as="geometry" />
        </mxCell>
        <mxCell id="maC-NbdhFX693N1AFnbe-16" value="" style="rounded=0;whiteSpace=wrap;html=1;" vertex="1" parent="1">
          <mxGeometry x="207" y="264" width="158" height="29" as="geometry" />
        </mxCell>
        <mxCell id="maC-NbdhFX693N1AFnbe-17" value="assembler code" style="text;html=1;align=center;verticalAlign=middle;whiteSpace=wrap;rounded=0;fontSize=16;" vertex="1" parent="1">
          <mxGeometry x="221.5" y="266.5" width="135" height="24.5" as="geometry" />
        </mxCell>
        <mxCell id="maC-NbdhFX693N1AFnbe-18" value="" style="endArrow=classic;html=1;rounded=0;fontSize=12;startSize=8;endSize=8;curved=1;exitX=0.5;exitY=1;exitDx=0;exitDy=0;" edge="1" parent="1" source="maC-NbdhFX693N1AFnbe-13">
          <mxGeometry width="50" height="50" relative="1" as="geometry">
            <mxPoint x="287" y="214" as="sourcePoint" />
            <mxPoint x="286" y="264" as="targetPoint" />
          </mxGeometry>
        </mxCell>
        <mxCell id="maC-NbdhFX693N1AFnbe-19" value="" style="rounded=0;whiteSpace=wrap;html=1;fillColor=#d5e8d4;strokeColor=#82b366;" vertex="1" parent="1">
          <mxGeometry x="238.6" y="344" width="96" height="80" as="geometry" />
        </mxCell>
        <mxCell id="maC-NbdhFX693N1AFnbe-20" value="assembler" style="text;html=1;align=center;verticalAlign=middle;whiteSpace=wrap;rounded=0;fontSize=16;" vertex="1" parent="1">
          <mxGeometry x="259" y="368.5" width="60" height="30" as="geometry" />
        </mxCell>
        <mxCell id="maC-NbdhFX693N1AFnbe-28" value="" style="endArrow=classic;html=1;rounded=0;fontSize=12;startSize=8;endSize=8;curved=1;entryX=0.5;entryY=0;entryDx=0;entryDy=0;" edge="1" parent="1" target="maC-NbdhFX693N1AFnbe-19">
          <mxGeometry width="50" height="50" relative="1" as="geometry">
            <mxPoint x="286.5" y="293" as="sourcePoint" />
            <mxPoint x="287" y="343" as="targetPoint" />
          </mxGeometry>
        </mxCell>
        <mxCell id="maC-NbdhFX693N1AFnbe-31" value="" style="rounded=0;whiteSpace=wrap;html=1;" vertex="1" parent="1">
          <mxGeometry x="207.6" y="476" width="158" height="29" as="geometry" />
        </mxCell>
        <mxCell id="maC-NbdhFX693N1AFnbe-32" value="object code" style="text;html=1;align=center;verticalAlign=middle;whiteSpace=wrap;rounded=0;fontSize=16;" vertex="1" parent="1">
          <mxGeometry x="222.1" y="479.5" width="135" height="24.5" as="geometry" />
        </mxCell>
        <mxCell id="maC-NbdhFX693N1AFnbe-33" value="" style="endArrow=classic;html=1;rounded=0;fontSize=12;startSize=8;endSize=8;curved=1;entryX=0.5;entryY=0;entryDx=0;entryDy=0;" edge="1" parent="1">
          <mxGeometry width="50" height="50" relative="1" as="geometry">
            <mxPoint x="286.33" y="424" as="sourcePoint" />
            <mxPoint x="286.83" y="475" as="targetPoint" />
          </mxGeometry>
        </mxCell>
        <mxCell id="maC-NbdhFX693N1AFnbe-49" style="edgeStyle=none;curved=1;rounded=0;orthogonalLoop=1;jettySize=auto;html=1;exitX=1;exitY=0.5;exitDx=0;exitDy=0;entryX=1;entryY=0.515;entryDx=0;entryDy=0;entryPerimeter=0;fontSize=12;startSize=8;endSize=8;" edge="1" parent="1" source="maC-NbdhFX693N1AFnbe-45" target="maC-NbdhFX693N1AFnbe-45">
          <mxGeometry relative="1" as="geometry" />
        </mxCell>
      </root>
    </mxGraphModel>
  </diagram>
</mxfile>
